<svg width="1024" height="1024" viewBox="0 0 1024 1024" fill="none" xmlns="http://www.w3.org/2000/svg">
<path fill-rule="evenodd" clip-rule="evenodd" d="M1024 858V743C1024 728.641 1012.36 717 998 717C983.641 717 972 728.641 972 743V858C972 920.859 920.859 972 858 972H743C728.641 972 717 983.641 717 998C717 1012.36 728.641 1024 743 1024H858C949.532 1024 1024 949.532 1024 858ZM307 998C307 983.641 295.359 972 281 972H166C103.141 972 52 920.859 52 858V743C52 728.641 40.359 717 26 717C11.641 717 0 728.641 0 743V858C0 949.532 74.468 1024 166 1024H281C295.359 1024 307 1012.36 307 998ZM52 281V166C52 103.14 103.141 52 166 52H281C295.359 52 307 40.359 307 26C307 11.641 295.359 0 281 0H166C74.468 0 0 74.467 0 166V281C0 295.359 11.641 307 26 307C40.359 307 52 295.359 52 281ZM1024 281V166C1024 74.467 949.532 0 858 0H743C728.641 0 717 11.641 717 26C717 40.359 728.641 52 743 52H858C920.859 52 972 103.14 972 166V281C972 295.359 983.641 307 998 307C1012.36 307 1024 295.359 1024 281ZM691.429 756.836C702.383 746.718 703.06 729.636 692.942 718.682C682.823 707.728 665.742 707.051 654.788 717.168C615.811 753.172 565.101 773 512 773C458.899 773 408.189 753.172 369.212 717.168C358.256 707.051 341.177 707.729 331.058 718.682C320.94 729.636 321.617 746.718 332.571 756.836C381.556 802.082 445.277 827 512 827C578.723 827 642.444 802.082 691.429 756.836ZM566 578V386C566 371.088 553.912 359 539 359C524.088 359 512 371.088 512 386V578C512 586.271 505.271 593 497 593H475C460.088 593 448 605.088 448 620C448 634.912 460.088 647 475 647H497C535.047 647 566 616.047 566 578ZM752 461.5V384.5C752 370.417 740.583 359 726.5 359C712.417 359 701 370.417 701 384.5V461.5C701 475.583 712.417 487 726.5 487C740.583 487 752 475.583 752 461.5ZM303.5 487C289.417 487 278 475.583 278 461.5V384.5C278 370.417 289.417 359 303.5 359C317.583 359 329 370.417 329 384.5V461.5C329 475.583 317.583 487 303.5 487Z" fill="white"/>
</svg>
