<svg width="50" height="50" viewBox="0 0 50 50" fill="none" xmlns="http://www.w3.org/2000/svg">
<circle cx="25" cy="25" r="25" fill="#0057FF"/>
<path fill-rule="evenodd" clip-rule="evenodd" d="M18.0995 26.4773C19.0622 26.4773 19.9767 26.6706 20.843 27.0571C21.6902 27.4243 22.4314 27.9268 23.0666 28.5647C23.7019 29.2025 24.2025 29.9466 24.5683 30.7969C24.9534 31.6667 25.1459 32.5847 25.1459 33.5511C25.1459 34.5368 24.963 35.4548 24.5972 36.3053C24.2122 37.1557 23.702 37.9047 23.0666 38.5521C22.4313 39.1996 21.6901 39.7069 20.843 40.0742C19.9767 40.4414 19.0622 40.625 18.0995 40.625C17.1177 40.625 16.2033 40.4414 15.3561 40.0742C14.5089 39.7069 13.7629 39.1996 13.118 38.5521C12.473 37.9046 11.9677 37.1557 11.6019 36.3053C11.236 35.4549 11.0532 34.5368 11.0532 33.5511C11.0532 32.5847 11.236 31.6666 11.6019 30.7969C11.9677 29.9465 12.473 29.2024 13.118 28.5647C13.763 27.9269 14.509 27.4147 15.3561 27.0281C16.2032 26.6609 17.1177 26.4773 18.0995 26.4773ZM18.0995 38.1609C19.351 38.1609 20.4243 37.7115 21.3195 36.8128C22.2148 35.9141 22.6624 34.827 22.6624 33.5512C22.6624 32.2949 22.2148 31.2174 21.3195 30.3187C20.4243 29.4199 19.3509 28.9706 18.0995 28.9706C16.8289 28.9706 15.7459 29.4199 14.8506 30.3187C13.9554 31.2174 13.5077 32.295 13.5077 33.5512C13.5077 34.8268 13.9554 35.914 14.8506 36.8128C15.7459 37.7115 16.8287 38.1609 18.0995 38.1609ZM33.5786 10.9375C34.5605 10.9375 35.4749 11.1211 36.3221 11.4883C37.1692 11.8556 37.9152 12.3629 38.5602 13.0104C39.2051 13.6579 39.7105 14.4068 40.0763 15.2572C40.4421 16.1076 40.625 17.0257 40.625 18.0114C40.625 18.9778 40.4421 19.8959 40.0763 20.7656C39.7105 21.616 39.2051 22.3601 38.5602 22.9978C37.9152 23.6356 37.1692 24.1478 36.3221 24.5344C35.475 24.9016 34.5605 25.0852 33.5786 25.0852C32.616 25.0852 31.7014 24.9016 30.8351 24.5344C29.988 24.1478 29.2468 23.6356 28.6115 22.9978C27.9763 22.36 27.466 21.6159 27.0809 20.7656C26.7151 19.8958 26.5322 18.9778 26.5322 18.0114C26.5322 17.0257 26.7151 16.1077 27.0809 15.2572C27.466 14.4068 27.9762 13.6578 28.6115 13.0104C29.2468 12.3629 29.9881 11.8556 30.8351 11.4883C31.7015 11.1211 32.616 10.9375 33.5786 10.9375ZM33.5786 22.5921C34.8493 22.5921 35.9323 22.1427 36.8275 21.2439C37.7228 20.3452 38.1704 19.2676 38.1704 18.0114C38.1704 16.7358 37.7228 15.6486 36.8275 14.7498C35.9323 13.8511 34.8494 13.4017 33.5786 13.4017C32.3272 13.4017 31.2539 13.8511 30.3586 14.7498C29.4634 15.6486 29.0157 16.7356 29.0157 18.0114C29.0157 19.2677 29.4634 20.3452 30.3586 21.2439C31.2539 22.1427 32.3273 22.5921 33.5786 22.5921ZM17.2043 10.9375H25.2325V13.4019H23.442C23.9619 14.0203 24.371 14.7161 24.6694 15.4892C24.9678 16.2623 25.117 17.0837 25.117 17.9536V18.0115C25.117 18.9973 24.9245 19.9152 24.5395 20.7657C24.1736 21.6355 23.6683 22.3941 23.0233 23.0416C22.3784 23.6891 21.6323 24.1964 20.7852 24.5636C19.9189 24.9309 18.9948 25.1145 18.0128 25.1145C17.0309 25.1145 16.1165 24.9309 15.2693 24.5636C14.4029 24.1964 13.6521 23.6891 13.0168 23.0416C12.3814 22.3941 11.8712 21.6355 11.4862 20.7657C11.1204 19.9153 10.9375 18.9973 10.9375 18.0115C10.9375 17.0838 11.1204 16.2141 11.4862 15.4023C11.852 14.5905 12.3285 13.8705 12.9157 13.2425C13.5029 12.6143 14.1719 12.0973 14.9228 11.6914C15.6736 11.2855 16.4341 11.0439 17.2042 10.9666L17.2043 10.9375ZM22.6623 18.0115C22.6623 16.7359 22.2147 15.6486 21.3195 14.7499C20.4242 13.8512 19.3508 13.4018 18.0995 13.4018C16.8288 13.4018 15.7458 13.8511 14.8506 14.7499C13.9553 15.6486 13.5077 16.7357 13.5077 18.0115C13.5077 19.2678 13.9553 20.3453 14.8506 21.244C15.7458 22.1428 16.8287 22.5921 18.0995 22.5921C19.3509 22.5921 20.4242 22.1428 21.3195 21.244C22.2147 20.3453 22.6623 19.2677 22.6623 18.0115Z" fill="white"/>
</svg>
