<svg width="24" height="24" viewBox="0 0 24 24" fill="none" xmlns="http://www.w3.org/2000/svg">
<path d="M23.0603 20.9389L17.3273 15.2059C18.6399 13.3612 19.2115 11.0906 18.9287 8.84432C18.6459 6.59801 17.5294 4.53994 15.8005 3.0781C14.0717 1.61626 11.8567 0.857357 9.59461 0.951841C7.33253 1.04633 5.18853 1.98729 3.58761 3.58822C1.98668 5.18914 1.04571 7.33314 0.951231 9.59522C0.856747 11.8573 1.61564 14.0723 3.07749 15.8011C4.53933 17.53 6.5974 18.6465 8.84371 18.9293C11.09 19.2121 13.3606 18.6405 15.2053 17.3279L20.9383 23.0609L23.0603 20.9389ZM2.99934 9.99995C2.99934 8.61548 3.40988 7.2621 4.17905 6.11096C4.94822 4.95981 6.04147 4.0626 7.32055 3.53279C8.59964 3.00298 10.0071 2.86435 11.365 3.13445C12.7228 3.40455 13.9701 4.07123 14.9491 5.0502C15.9281 6.02917 16.5947 7.27645 16.8648 8.63432C17.1349 9.99218 16.9963 11.3997 16.4665 12.6787C15.9367 13.9578 15.0395 15.0511 13.8883 15.8202C12.7372 16.5894 11.3838 16.9999 9.99934 16.9999C8.14347 16.9978 6.36422 16.2597 5.05193 14.9474C3.73963 13.6351 3.00146 11.8558 2.99934 9.99995V9.99995Z" fill="black"/>
</svg>
