<svg width="50" height="50" viewBox="0 0 50 50" fill="none" xmlns="http://www.w3.org/2000/svg">
<path d="M25 50C38.8071 50 50 38.8071 50 25C50 11.1929 38.8071 0 25 0C11.1929 0 0 11.1929 0 25C0 38.8071 11.1929 50 25 50Z" fill="#2775CA"/>
<path d="M20.4167 42.292C20.4167 42.917 20 43.1253 19.375 43.1253C11.6667 40.6253 6.25 33.542 6.25 25.2087C6.25 16.8753 11.6667 9.79199 19.375 7.29199C20 7.08365 20.4167 7.50032 20.4167 8.12532V9.58365C20.4167 10.0003 20.2083 10.417 19.7917 10.6253C13.75 12.917 9.58333 18.542 9.58333 25.2087C9.58333 31.8753 13.9583 37.7087 19.7917 39.792C20.2083 40.0003 20.4167 40.417 20.4167 40.8337V42.292Z" fill="white"/>
<path d="M26.6673 37.0835C26.6673 37.5002 26.2506 37.9168 25.834 37.9168H24.1673C23.7507 37.9168 23.334 37.5002 23.334 37.0835V34.5835C20.0007 34.1668 18.334 32.2918 17.709 29.5835C17.709 29.1668 17.9173 28.7502 18.334 28.7502H20.209C20.6257 28.7502 20.834 28.9585 21.0423 29.3752C21.459 30.8335 22.2923 32.0835 25.0007 32.0835C27.084 32.0835 28.5423 31.0418 28.5423 29.3752C28.5423 27.7085 27.709 27.0835 24.7923 26.6668C20.4173 26.0418 18.334 24.7918 18.334 21.2502C18.334 18.5418 20.4173 16.4585 23.334 16.0418V13.5418C23.334 13.1252 23.7507 12.7085 24.1673 12.7085H25.834C26.2506 12.7085 26.6673 13.1252 26.6673 13.5418V16.0418C29.1673 16.4585 30.834 17.9168 31.2507 20.2085C31.2507 20.6252 31.0423 21.0418 30.6257 21.0418H28.959C28.5423 21.0418 28.334 20.8335 28.1257 20.4168C27.709 18.9585 26.6673 18.3335 24.7923 18.3335C22.709 18.3335 21.6673 19.3752 21.6673 20.8335C21.6673 22.2918 22.2923 23.1252 25.4173 23.5418C29.7923 24.1668 31.8757 25.4168 31.8757 28.9585C31.8757 31.6668 29.7923 33.9585 26.6673 34.5835V37.0835V37.0835Z" fill="white"/>
<path d="M30.6237 43.1248C29.9987 43.3332 29.582 42.9165 29.582 42.2915V40.8332C29.582 40.4165 29.7904 39.9998 30.207 39.7915C36.2487 37.4998 40.4154 31.8748 40.4154 25.2082C40.4154 18.5415 36.0404 12.7082 30.207 10.6248C29.7904 10.4165 29.582 9.99984 29.582 9.58317V8.12484C29.582 7.49984 29.9987 7.2915 30.6237 7.2915C38.1237 9.7915 43.7487 16.8748 43.7487 25.2082C43.7487 33.5415 38.332 40.6248 30.6237 43.1248Z" fill="white"/>
</svg>
