<svg width="50" height="50" viewBox="0 0 50 50" fill="none" xmlns="http://www.w3.org/2000/svg">
<circle cx="25" cy="25" r="25" fill="#333333"/>
<path d="M12.7322 30.5854L16.0163 27.1875L11.9335 21.678L6.73515 14.3226C4.89865 17.4567 3.8457 21.1051 3.8457 25C3.8457 31.4524 6.73515 37.2294 11.2922 41.1092L17.8907 36.4459C15.6463 35.0476 13.8383 33.0119 12.7322 30.5854Z" fill="white"/>
<path d="M19.4142 12.7327L22.8121 16.0168L28.3216 11.934L35.677 6.73564C32.5428 4.89914 28.8945 3.84619 24.9995 3.84619C18.5472 3.84619 12.7702 6.73564 8.89037 11.2927L13.5537 17.8912C14.9519 15.6468 16.9876 13.8388 19.4142 12.7327Z" fill="white"/>
<path d="M33.9828 22.8126L38.0656 28.322L43.2639 35.6775C45.1004 32.5433 46.1534 28.895 46.1534 25C46.1534 18.5476 43.2639 12.7706 38.7069 8.89086L32.1084 13.5542C34.3528 14.9524 36.1608 16.9881 37.2669 19.4147L33.9828 22.8126Z" fill="white"/>
<path d="M41.1087 38.7073L36.4454 32.1089C35.0471 34.3533 33.0114 36.1613 30.5849 37.2674L27.187 33.9833L21.6775 38.0661L14.3221 43.2644C17.4563 45.1009 21.1046 46.1539 24.9995 46.1539C31.4519 46.1539 37.2289 43.2644 41.1087 38.7073Z" fill="white"/>
</svg>
